<svg width="145" height="12" viewBox="0 0 145 12" fill="none" xmlns="http://www.w3.org/2000/svg">
<path d="M2.04785 0.760742H4.00781L6.76758 7.99414L9.51855 0.760742H11.4785L7.5498 11H5.98535L2.04785 0.760742ZM0.958008 0.760742H2.92676L3.28711 8.48633V11H0.958008V0.760742ZM10.6172 0.760742H12.5947V11H10.2568V8.48633L10.6172 0.760742ZM18.835 3.14258L15.9346 11H13.5791L17.666 0.760742H19.248L18.835 3.14258ZM21.5947 11L18.6592 3.13379L18.2461 0.760742H19.8457L23.9414 11H21.5947ZM21.498 7.19434V8.89062H15.7412V7.19434H21.498ZM24.9258 0.760742H29.083C29.71 0.760742 30.2754 0.828125 30.7793 0.962891C31.2891 1.0918 31.7197 1.28809 32.0713 1.55176C32.4287 1.80957 32.7012 2.13184 32.8887 2.51855C33.0762 2.89941 33.1699 3.3418 33.1699 3.8457C33.1699 4.41992 33.0703 4.90625 32.8711 5.30469C32.6719 5.70312 32.3936 6.03125 32.0361 6.28906C31.6787 6.54102 31.2598 6.74902 30.7793 6.91309L30.0234 7.34375H26.4287L26.4111 5.50684H29.1094C29.4902 5.50684 29.8096 5.44824 30.0674 5.33105C30.3252 5.21387 30.5186 5.04688 30.6475 4.83008C30.7764 4.61328 30.8408 4.3584 30.8408 4.06543C30.8408 3.76074 30.7734 3.5 30.6387 3.2832C30.5098 3.06055 30.3135 2.89062 30.0498 2.77344C29.792 2.65625 29.4697 2.59766 29.083 2.59766H27.2637V11H24.9258V0.760742ZM31.0693 11L28.5732 6.47363L31.0342 6.45605L33.5742 10.8945V11H31.0693ZM37.248 0.760742V11H34.9189V0.760742H37.248ZM43.7871 0.760742L39.4893 5.91992L37.0635 8.29297L36.4922 6.1748L38.1797 4.02148L40.8779 0.760742H43.7871ZM41.1592 11L37.9863 6.35059L39.7354 4.97949L43.9277 11H41.1592ZM57.2783 9.17188V11H49.4297V9.17188H57.2783ZM57.1729 1.98242L50.5107 11H48.8496V9.74316L55.582 0.760742H57.1729V1.98242ZM56.3906 0.760742V2.58887H48.8496V0.760742H56.3906ZM64.7314 0.760742H67.0693V7.4668C67.0693 8.25781 66.8877 8.92871 66.5244 9.47949C66.167 10.0244 65.6689 10.4375 65.0303 10.7188C64.3975 11 63.665 11.1406 62.833 11.1406C62.001 11.1406 61.2656 11 60.627 10.7188C59.9883 10.4375 59.4873 10.0244 59.124 9.47949C58.7666 8.92871 58.5879 8.25781 58.5879 7.4668V0.760742H60.9082V7.4668C60.9082 7.89453 60.9844 8.24609 61.1367 8.52148C61.2949 8.79688 61.5176 8.99902 61.8047 9.12793C62.0918 9.25684 62.4346 9.32129 62.833 9.32129C63.2373 9.32129 63.5801 9.25684 63.8613 9.12793C64.1426 8.99902 64.3564 8.79688 64.5029 8.52148C64.6553 8.24609 64.7314 7.89453 64.7314 7.4668V0.760742ZM75.2695 7.5459H77.6074C77.5547 8.26074 77.3467 8.8877 76.9834 9.42676C76.6201 9.96582 76.1133 10.3877 75.4629 10.6924C74.8184 10.9912 74.0479 11.1406 73.1514 11.1406C72.4365 11.1406 71.7979 11.0264 71.2354 10.7979C70.6729 10.5693 70.1924 10.2412 69.7939 9.81348C69.4014 9.37988 69.0996 8.8584 68.8887 8.24902C68.6836 7.63965 68.5811 6.95117 68.5811 6.18359V5.58594C68.5811 4.81836 68.6895 4.12988 68.9062 3.52051C69.123 2.90527 69.4307 2.38379 69.8291 1.95605C70.2275 1.52246 70.7051 1.19141 71.2617 0.962891C71.8242 0.728516 72.4541 0.611328 73.1514 0.611328C74.0771 0.611328 74.8564 0.769531 75.4893 1.08594C76.1279 1.40234 76.623 1.83887 76.9746 2.39551C77.332 2.94629 77.5459 3.57324 77.6162 4.27637H75.2871C75.2578 3.9248 75.1699 3.61133 75.0234 3.33594C74.877 3.06055 74.6514 2.84375 74.3467 2.68555C74.0479 2.52734 73.6494 2.44824 73.1514 2.44824C72.7822 2.44824 72.457 2.51562 72.1758 2.65039C71.8945 2.7793 71.6602 2.97559 71.4727 3.23926C71.2852 3.49707 71.1445 3.82227 71.0508 4.21484C70.957 4.60156 70.9102 5.05566 70.9102 5.57715V6.18359C70.9102 6.69922 70.9512 7.15332 71.0332 7.5459C71.1211 7.93262 71.2559 8.25781 71.4375 8.52148C71.6191 8.78516 71.8506 8.98438 72.1318 9.11914C72.4189 9.25391 72.7588 9.32129 73.1514 9.32129C73.6143 9.32129 73.9951 9.25684 74.2939 9.12793C74.5928 8.99902 74.8213 8.80273 74.9795 8.53906C75.1436 8.26953 75.2402 7.93848 75.2695 7.5459ZM81.3867 0.760742V11H79.0576V0.760742H81.3867ZM87.9258 0.760742L83.6279 5.91992L81.2021 8.29297L80.6309 6.1748L82.3184 4.02148L85.0166 0.760742H87.9258ZM85.2979 11L82.125 6.35059L83.874 4.97949L88.0664 11H85.2979ZM96.3369 9.17188V11H90.4658V9.17188H96.3369ZM91.248 0.760742V11H88.9189V0.760742H91.248ZM95.5811 4.79492V6.62305H90.4658V4.79492H95.5811ZM96.3369 0.760742V2.59766H90.4658V0.760742H96.3369ZM97.6113 0.760742H101.769C102.396 0.760742 102.961 0.828125 103.465 0.962891C103.975 1.0918 104.405 1.28809 104.757 1.55176C105.114 1.80957 105.387 2.13184 105.574 2.51855C105.762 2.89941 105.855 3.3418 105.855 3.8457C105.855 4.41992 105.756 4.90625 105.557 5.30469C105.357 5.70312 105.079 6.03125 104.722 6.28906C104.364 6.54102 103.945 6.74902 103.465 6.91309L102.709 7.34375H99.1143L99.0967 5.50684H101.795C102.176 5.50684 102.495 5.44824 102.753 5.33105C103.011 5.21387 103.204 5.04688 103.333 4.83008C103.462 4.61328 103.526 4.3584 103.526 4.06543C103.526 3.76074 103.459 3.5 103.324 3.2832C103.195 3.06055 102.999 2.89062 102.735 2.77344C102.478 2.65625 102.155 2.59766 101.769 2.59766H99.9492V11H97.6113V0.760742ZM103.755 11L101.259 6.47363L103.72 6.45605L106.26 10.8945V11H103.755ZM111.946 6.61426H109.107L109.09 5.0498H111.612C111.976 5.0498 112.28 5.00586 112.526 4.91797C112.778 4.82422 112.966 4.68945 113.089 4.51367C113.212 4.33203 113.273 4.1123 113.273 3.85449C113.273 3.55566 113.212 3.31543 113.089 3.13379C112.966 2.94629 112.781 2.81152 112.535 2.72949C112.289 2.6416 111.981 2.59766 111.612 2.59766H109.934V11H107.604V0.760742H111.454C112.104 0.760742 112.685 0.819336 113.194 0.936523C113.704 1.04785 114.138 1.2207 114.495 1.45508C114.858 1.68359 115.134 1.97656 115.321 2.33398C115.509 2.68555 115.603 3.10156 115.603 3.58203C115.603 3.99805 115.503 4.3877 115.304 4.75098C115.104 5.11426 114.785 5.41016 114.346 5.63867C113.912 5.86719 113.338 5.98438 112.623 5.99023L111.946 6.61426ZM111.841 11H108.492L109.362 9.17188H111.841C112.233 9.17188 112.553 9.11914 112.799 9.01367C113.045 8.90234 113.227 8.75293 113.344 8.56543C113.467 8.37793 113.528 8.16699 113.528 7.93262C113.528 7.66309 113.476 7.43164 113.37 7.23828C113.265 7.03906 113.095 6.88672 112.86 6.78125C112.626 6.66992 112.321 6.61426 111.946 6.61426H109.758L109.767 5.0498H112.474L113.01 5.67383C113.695 5.64453 114.246 5.75 114.662 5.99023C115.078 6.22461 115.38 6.5293 115.567 6.9043C115.761 7.2793 115.857 7.66602 115.857 8.06445C115.857 8.56836 115.77 9.00488 115.594 9.37402C115.418 9.7373 115.157 10.042 114.812 10.2881C114.472 10.5283 114.053 10.707 113.555 10.8242C113.057 10.9414 112.485 11 111.841 11ZM124.919 9.17188V11H119.048V9.17188H124.919ZM119.83 0.760742V11H117.501V0.760742H119.83ZM124.163 4.79492V6.62305H119.048V4.79492H124.163ZM124.919 0.760742V2.59766H119.048V0.760742H124.919ZM126.193 0.760742H130.351C130.978 0.760742 131.543 0.828125 132.047 0.962891C132.557 1.0918 132.987 1.28809 133.339 1.55176C133.696 1.80957 133.969 2.13184 134.156 2.51855C134.344 2.89941 134.438 3.3418 134.438 3.8457C134.438 4.41992 134.338 4.90625 134.139 5.30469C133.939 5.70312 133.661 6.03125 133.304 6.28906C132.946 6.54102 132.527 6.74902 132.047 6.91309L131.291 7.34375H127.696L127.679 5.50684H130.377C130.758 5.50684 131.077 5.44824 131.335 5.33105C131.593 5.21387 131.786 5.04688 131.915 4.83008C132.044 4.61328 132.108 4.3584 132.108 4.06543C132.108 3.76074 132.041 3.5 131.906 3.2832C131.777 3.06055 131.581 2.89062 131.317 2.77344C131.06 2.65625 130.737 2.59766 130.351 2.59766H128.531V11H126.193V0.760742ZM132.337 11L129.841 6.47363L132.302 6.45605L134.842 10.8945V11H132.337ZM144.958 5.56836V9.73438C144.782 9.92773 144.513 10.1357 144.149 10.3584C143.792 10.5752 143.329 10.7598 142.761 10.9121C142.192 11.0645 141.507 11.1406 140.704 11.1406C139.995 11.1406 139.348 11.0322 138.762 10.8154C138.176 10.5986 137.672 10.2793 137.25 9.85742C136.828 9.42969 136.503 8.9082 136.274 8.29297C136.046 7.67773 135.932 6.97461 135.932 6.18359V5.57715C135.932 4.78613 136.043 4.08594 136.266 3.47656C136.488 2.86133 136.805 2.33984 137.215 1.91211C137.625 1.48437 138.111 1.16211 138.674 0.945312C139.242 0.722656 139.869 0.611328 140.555 0.611328C141.527 0.611328 142.321 0.760742 142.937 1.05957C143.558 1.35254 144.029 1.75977 144.352 2.28125C144.674 2.80273 144.873 3.40039 144.949 4.07422H142.699C142.646 3.73438 142.541 3.44434 142.383 3.2041C142.23 2.95801 142.011 2.77051 141.724 2.6416C141.442 2.5127 141.076 2.44824 140.625 2.44824C140.262 2.44824 139.934 2.5127 139.641 2.6416C139.348 2.77051 139.099 2.9668 138.894 3.23047C138.688 3.48828 138.533 3.81055 138.428 4.19727C138.322 4.58398 138.27 5.03809 138.27 5.55957V6.18359C138.27 6.69922 138.322 7.15332 138.428 7.5459C138.539 7.93848 138.703 8.2666 138.92 8.53027C139.137 8.78809 139.406 8.98438 139.729 9.11914C140.057 9.25391 140.432 9.32129 140.854 9.32129C141.363 9.32129 141.756 9.26855 142.031 9.16309C142.307 9.05176 142.503 8.95215 142.62 8.86426V7.20312H140.528V5.56836H144.958Z" fill="white"/>
</svg>
